<?xml version="1.0" encoding="utf-8"?>
<!-- Generator: Adobe Illustrator 16.0.0, SVG Export Plug-In . SVG Version: 6.00 Build 0)  -->
<!DOCTYPE svg PUBLIC "-//W3C//DTD SVG 1.1//EN" "http://www.w3.org/Graphics/SVG/1.1/DTD/svg11.dtd">
<svg version="1.1" id="Layer_1" xmlns="http://www.w3.org/2000/svg" xmlns:xlink="http://www.w3.org/1999/xlink" x="0px" y="0px"
	 width="1876.227px" height="509.336px" viewBox="0 0 1876.227 509.336" enable-background="new 0 0 1876.227 509.336"
	 xml:space="preserve">
<g>
	<g>
		<g>
			<path fill="#0071BC" d="M617.428,176.38h70.327c16.808,0,31.659,3.205,44.563,9.619c12.899,6.414,22.924,15.447,30.076,27.092
				c7.15,11.648,10.727,25.211,10.727,40.691c0,15.482-3.576,29.049-10.727,40.693c-7.152,11.648-17.177,20.678-30.076,27.092
				c-12.903,6.412-27.755,9.619-44.563,9.619h-70.327V176.38z M685.986,301.774c15.48,0,27.827-4.313,37.043-12.938
				c9.213-8.625,13.822-20.309,13.822-35.055c0-14.74-4.609-26.428-13.822-35.053c-9.216-8.625-21.563-12.938-37.043-12.938h-32.731
				v95.982H685.986z"/>
			<path fill="#0071BC" d="M888.118,223.595c9.876,8.773,14.817,22.006,14.817,39.697v67.895h-32.288V316.37
				c-6.489,11.057-18.577,16.586-36.27,16.586c-9.144,0-17.066-1.549-23.773-4.645c-6.711-3.096-11.832-7.371-15.371-12.826
				c-3.538-5.453-5.308-11.645-5.308-18.578c0-11.057,4.164-19.754,12.495-26.096c8.328-6.338,21.193-9.51,38.592-9.51h27.423
				c0-7.52-2.287-13.303-6.855-17.359c-4.571-4.055-11.428-6.082-20.567-6.082c-6.341,0-12.571,0.994-18.688,2.984
				c-6.12,1.99-11.316,4.684-15.592,8.072l-12.384-24.105c6.485-4.568,14.264-8.105,23.331-10.615
				c9.067-2.506,18.391-3.76,27.977-3.76C864.084,210.437,878.239,214.825,888.118,223.595z M858.705,305.644
				c4.568-2.727,7.813-6.744,9.73-12.053v-12.164h-23.663c-14.154,0-21.23,4.645-21.23,13.934c0,4.422,1.73,7.926,5.196,10.504
				c3.463,2.582,8.218,3.871,14.265,3.871C848.898,309.735,854.133,308.374,858.705,305.644z"/>
			<path fill="#0071BC" d="M1010.856,325.437c-3.393,2.51-7.557,4.389-12.495,5.641c-4.941,1.25-10.139,1.879-15.591,1.879
				c-14.154,0-25.102-3.611-32.842-10.836c-7.74-7.223-11.61-17.838-11.61-31.846v-48.877h-18.356V214.86h18.356v-28.973h34.5
				v28.973h29.635v26.537h-29.635v48.434c0,5.014,1.289,8.885,3.87,11.611c2.578,2.729,6.227,4.09,10.947,4.09
				c5.453,0,10.097-1.471,13.933-4.422L1010.856,325.437z"/>
			<path fill="#0071BC" d="M1120.769,223.595c9.876,8.773,14.817,22.006,14.817,39.697v67.895h-32.288V316.37
				c-6.489,11.057-18.577,16.586-36.27,16.586c-9.144,0-17.066-1.549-23.773-4.645c-6.711-3.096-11.832-7.371-15.371-12.826
				c-3.538-5.453-5.308-11.645-5.308-18.578c0-11.057,4.164-19.754,12.495-26.096c8.328-6.338,21.193-9.51,38.592-9.51h27.423
				c0-7.52-2.287-13.303-6.855-17.359c-4.571-4.055-11.428-6.082-20.567-6.082c-6.341,0-12.571,0.994-18.688,2.984
				c-6.12,1.99-11.316,4.684-15.592,8.072L1027,224.812c6.485-4.568,14.264-8.105,23.331-10.615
				c9.067-2.506,18.391-3.76,27.977-3.76C1096.736,210.437,1110.89,214.825,1120.769,223.595z M1091.356,305.644
				c4.568-2.727,7.813-6.744,9.73-12.053v-12.164h-23.663c-14.154,0-21.23,4.645-21.23,13.934c0,4.422,1.73,7.926,5.196,10.504
				c3.463,2.582,8.218,3.871,14.265,3.871C1081.549,309.735,1086.785,308.374,1091.356,305.644z"/>
			<path fill="#1A1A1A" d="M1311.181,176.38v154.807h-35.827v-63.471h-70.327v63.471H1169.2V176.38h35.827v61.037h70.327V176.38
				H1311.181z"/>
			<path fill="#1A1A1A" d="M1368.349,325.104c-9.952-5.23-17.73-12.494-23.332-21.783c-5.604-9.289-8.403-19.828-8.403-31.625
				c0-11.793,2.799-22.336,8.403-31.625c5.602-9.289,13.38-16.549,23.332-21.783c9.952-5.232,21.192-7.852,33.726-7.852
				c12.53,0,23.736,2.619,33.616,7.852c9.875,5.234,17.616,12.494,23.221,21.783c5.602,9.289,8.404,19.832,8.404,31.625
				c0,11.797-2.803,22.336-8.404,31.625c-5.604,9.289-13.346,16.553-23.221,21.783c-9.88,5.236-21.086,7.852-33.616,7.852
				C1389.542,332.956,1378.301,330.341,1368.349,325.104z M1423.859,295.692c5.674-5.973,8.515-13.969,8.515-23.996
				c0-10.023-2.841-18.023-8.515-23.994c-5.678-5.973-12.938-8.957-21.784-8.957c-8.846,0-16.144,2.984-21.894,8.957
				c-5.75,5.971-8.625,13.971-8.625,23.994c0,10.027,2.875,18.023,8.625,23.996c5.75,5.971,13.048,8.957,21.894,8.957
				C1410.921,304.649,1418.181,301.663,1423.859,295.692z"/>
			<path fill="#1A1A1A" d="M1610.181,212.206v118.98h-32.73v-14.154c-4.572,5.164-10.028,9.105-16.366,11.832
				c-6.341,2.727-13.196,4.092-20.567,4.092c-15.629,0-28.014-4.496-37.153-13.49c-9.144-8.992-13.712-22.336-13.712-40.029v-67.23
				h34.5v62.145c0,19.168,8.034,28.75,24.106,28.75c8.255,0,14.89-2.689,19.903-8.072c5.011-5.381,7.52-13.379,7.52-23.996v-58.826
				H1610.181z"/>
			<path fill="#1A1A1A" d="M1653.305,329.308c-9.437-2.434-16.956-5.492-22.558-9.178l11.5-24.77
				c5.308,3.393,11.722,6.158,19.24,8.293c7.52,2.139,14.89,3.207,22.115,3.207c14.597,0,21.895-3.611,21.895-10.836
				c0-3.391-1.99-5.824-5.971-7.299c-3.981-1.473-10.101-2.727-18.356-3.76c-9.73-1.473-17.768-3.168-24.105-5.086
				c-6.341-1.914-11.832-5.309-16.476-10.174c-4.645-4.865-6.967-11.793-6.967-20.789c0-7.52,2.174-14.188,6.524-20.014
				c4.347-5.822,10.688-10.355,19.019-13.602c8.328-3.24,18.17-4.865,29.524-4.865c8.404,0,16.77,0.924,25.101,2.766
				c8.328,1.844,15.222,4.387,20.679,7.629l-11.5,24.549c-10.471-5.896-21.895-8.848-34.279-8.848
				c-7.374,0-12.903,1.033-16.587,3.098c-3.687,2.066-5.528,4.719-5.528,7.961c0,3.688,1.99,6.268,5.971,7.74
				c3.981,1.475,10.318,2.875,19.02,4.201c9.73,1.625,17.692,3.355,23.885,5.197c6.192,1.846,11.572,5.197,16.145,10.063
				c4.568,4.865,6.855,11.648,6.855,20.348c0,7.373-2.212,13.932-6.635,19.682s-10.874,10.211-19.351,13.381
				c-8.48,3.168-18.543,4.754-30.188,4.754C1672.397,332.956,1662.739,331.739,1653.305,329.308z"/>
			<path fill="#1A1A1A" d="M1875.564,281.427h-90.01c1.62,7.375,5.452,13.197,11.5,17.473c6.043,4.277,13.563,6.412,22.558,6.412
				c6.192,0,11.683-0.918,16.476-2.764c4.789-1.842,9.251-4.756,13.38-8.736l18.355,19.904
				c-11.206,12.826-27.571,19.24-49.096,19.24c-13.418,0-25.288-2.615-35.606-7.852c-10.321-5.23-18.283-12.494-23.884-21.783
				c-5.605-9.289-8.404-19.828-8.404-31.625c0-11.645,2.765-22.15,8.293-31.514c5.529-9.361,13.121-16.66,22.779-21.895
				c9.654-5.232,20.457-7.852,32.399-7.852c11.645,0,22.188,2.51,31.625,7.52c9.434,5.014,16.842,12.201,22.226,21.563
				c5.381,9.365,8.072,20.236,8.072,32.621C1876.227,272.581,1876.006,275.677,1875.564,281.427z M1794.842,243.167
				c-5.308,4.424-8.553,10.471-9.73,18.135h58.605c-1.182-7.52-4.423-13.525-9.73-18.023c-5.308-4.496-11.798-6.746-19.462-6.746
				C1806.708,236.532,1800.15,238.745,1794.842,243.167z"/>
		</g>
	</g>
	<g>
		<polygon fill="#1A1A1A" points="523.422,264.941 307.821,49.354 307.825,49.35 258.488,0 0,258.5 49.341,307.842 258.48,98.693 
			474.076,314.279 		"/>
		<path fill="#0071BC" d="M311.969,447.338l14.528,14.527l125.052-125.061l-49.337-49.338L277.155,412.521l14.528,14.529
			L250.4,468.334l-51.575-51.576l41.283-41.281l14.527,14.529l125.054-125.059l-49.338-49.34L205.291,340.658l14.528,14.529
			l-41.281,41.285l-51.576-51.578l41.28-41.285l14.533,14.533l125.047-125.059l-49.339-49.346L133.432,268.799l14.523,14.525
			L86.4,344.877h0.005l-0.019,0.02l18.596,18.592l1.691,1.695l-0.003-0.002l70.173,70.172l1.693,1.693l-0.002-0.002l70.173,70.172
			l1.692,1.693v-0.004l0.428,0.43l20.288-20.289l-0.428-0.426L311.969,447.338z M236.496,194.787l20.288-20.289l20.287,20.283
			l-20.292,20.299L236.496,194.787z M308.36,266.65l20.287-20.289l20.284,20.285l-20.288,20.297L308.36,266.65z M380.217,338.51
			l20.29-20.287l20.288,20.287l-20.292,20.295L380.217,338.51z"/>
	</g>
</g>
</svg>
