<?xml version="1.0" encoding="utf-8"?>
<!-- Generator: Adobe Illustrator 16.0.0, SVG Export Plug-In . SVG Version: 6.00 Build 0)  -->
<!DOCTYPE svg PUBLIC "-//W3C//DTD SVG 1.1//EN" "http://www.w3.org/Graphics/SVG/1.1/DTD/svg11.dtd">
<svg version="1.1" id="Layer_1" xmlns="http://www.w3.org/2000/svg" xmlns:xlink="http://www.w3.org/1999/xlink" x="0px" y="0px"
	 width="1346.93px" height="376.229px" viewBox="0 0 1346.93 376.229" enable-background="new 0 0 1346.93 376.229"
	 xml:space="preserve">
<g>
	<g>
		<path fill="#0071BC" d="M544.12,146.405c11.033,9.995,16.552,23.901,16.552,41.706c0,17.808-5.354,31.899-16.059,42.279
			c-10.708,10.378-27.095,15.569-49.163,15.569h-38.018v-114.55h39.331C517.299,131.409,533.084,136.408,544.12,146.405z
			 M541.169,188.602c0-26.219-15.021-39.329-45.064-39.329h-19.336v78.495h21.467c13.873,0,24.499-3.305,31.875-9.914
			C537.484,211.244,541.169,201.495,541.169,188.602z"/>
		<path fill="#0071BC" d="M653.588,245.959h-16.717v-11.635c-7.208,8.632-16.878,12.945-29.003,12.945
			c-9.07,0-16.583-2.565-22.534-7.703c-5.955-5.135-8.93-11.987-8.93-20.568c0-8.575,3.167-14.993,9.504-19.255
			c6.334-4.259,14.913-6.389,25.728-6.389h23.763v-3.278c0-11.576-6.45-17.368-19.337-17.368c-8.087,0-16.498,2.945-25.236,8.845
			l-8.195-11.469c10.594-8.41,22.614-12.618,36.051-12.618c10.268,0,18.655,2.595,25.155,7.783c6.499,5.191,9.752,13.355,9.752,24.5
			V245.959z M635.234,213.509v-7.375h-20.65c-13.22,0-19.828,4.151-19.828,12.457c0,4.257,1.638,7.511,4.917,9.748
			c3.276,2.241,7.838,3.36,13.683,3.36c5.843,0,10.951-1.639,15.323-4.914C633.045,223.507,635.234,219.084,635.234,213.509z"/>
		<path fill="#0071BC" d="M700.781,173.526v44.247c0,4.15,1.093,7.455,3.278,9.913c2.186,2.459,5.246,3.689,9.18,3.689
			c3.932,0,7.699-1.909,11.305-5.734l7.536,12.946c-6.443,5.789-13.575,8.684-21.384,8.684c-7.812,0-14.477-2.707-19.992-8.113
			c-5.518-5.406-8.275-12.699-8.275-21.875v-43.755h-10.979v-14.749h10.979v-27.368h18.353v27.368h22.946v14.749H700.781z"/>
		<path fill="#0071BC" d="M817.298,245.959h-16.719v-11.635c-7.207,8.632-16.879,12.945-29.002,12.945
			c-9.069,0-16.579-2.565-22.533-7.703c-5.954-5.135-8.927-11.987-8.927-20.568c0-8.575,3.162-14.993,9.501-19.255
			c6.332-4.259,14.913-6.389,25.727-6.389h23.763v-3.278c0-11.576-6.45-17.368-19.338-17.368c-8.084,0-16.501,2.945-25.24,8.845
			l-8.19-11.469c10.594-8.41,22.613-12.618,36.05-12.618c10.269,0,18.657,2.595,25.155,7.783c6.501,5.191,9.753,13.355,9.753,24.5
			V245.959z M798.941,213.509v-7.375h-20.648c-13.219,0-19.828,4.151-19.828,12.457c0,4.257,1.639,7.511,4.92,9.748
			c3.273,2.241,7.836,3.36,13.678,3.36c5.847,0,10.954-1.639,15.323-4.914C796.754,223.507,798.941,219.084,798.941,213.509z"/>
		<path fill="#1A1A1A" d="M845.48,245.959v-114.55h19.338v49.654h56.863v-49.654h19.338v114.55h-19.338V199.09h-56.863v46.869
			H845.48z"/>
		<path fill="#1A1A1A" d="M1043.11,234.24c-8.743,8.685-19.664,13.03-32.771,13.03c-13.112,0-24.04-4.345-32.778-13.03
			c-8.741-8.684-13.109-19.305-13.109-31.872c0-12.563,4.368-23.189,13.109-31.873c8.738-8.687,19.666-13.028,32.778-13.028
			c13.107,0,24.028,4.342,32.771,13.028c8.738,8.684,13.113,19.311,13.113,31.873C1056.223,214.935,1051.848,225.556,1043.11,234.24
			z M990.589,222.933c5.188,5.303,11.772,7.947,19.75,7.947c7.97,0,14.553-2.644,19.745-7.947c5.187-5.3,7.785-12.152,7.785-20.565
			c0-8.413-2.598-15.265-7.785-20.568c-5.192-5.298-11.775-7.947-19.745-7.947c-7.977,0-14.561,2.648-19.75,7.947
			c-5.19,5.303-7.786,12.155-7.786,20.568C982.803,210.781,985.399,217.633,990.589,222.933z"/>
		<path fill="#1A1A1A" d="M1137.991,205.973v-47.196h18.356v87.182h-18.356V230.06c-2.948,5.357-7.018,9.563-12.206,12.622
			c-5.19,3.057-10.791,4.588-16.797,4.588c-9.831,0-17.783-3.002-23.846-9.017c-6.063-6.005-9.091-14.689-9.091-26.054v-53.422
			h18.352v47.85c0,16.06,6.658,24.091,19.994,24.091c6.335,0,11.853-2.104,16.55-6.308
			C1135.642,220.203,1137.991,214.059,1137.991,205.973z"/>
		<path fill="#1A1A1A" d="M1245,219.902c0,8.302-3.002,14.941-9.011,19.911c-6.008,4.97-13.714,7.457-23.108,7.457
			c-6.338,0-12.917-1.148-19.742-3.444c-6.831-2.29-12.868-5.513-18.11-9.667l8.85-14.256c10.158,7.647,19.995,11.473,29.496,11.473
			c4.149,0,7.428-0.957,9.831-2.869c2.403-1.913,3.604-4.342,3.604-7.293c0-4.368-5.79-8.299-17.367-11.8
			c-0.881-0.328-1.534-0.543-1.968-0.652c-18.136-4.916-27.204-13.112-27.204-24.583c0-8.084,3.138-14.559,9.421-19.418
			c6.28-4.864,14.451-7.293,24.503-7.293c10.049,0,19.553,2.948,28.512,8.847l-6.88,13.605c-7.104-4.697-14.807-7.049-23.109-7.049
			c-4.37,0-7.918,0.794-10.648,2.376c-2.729,1.584-4.098,3.963-4.098,7.131c0,2.842,1.417,4.915,4.259,6.226
			c1.968,0.981,4.724,1.91,8.276,2.786c3.551,0.874,6.69,1.751,9.424,2.622c2.728,0.876,5.377,1.858,7.947,2.951
			c2.566,1.094,5.325,2.617,8.273,4.589C1242.049,205.479,1245,211.6,1245,219.902z"/>
		<path fill="#1A1A1A" d="M1346.93,210.398h-68.335c0.437,6.338,3.333,11.445,8.684,15.323c5.354,3.878,11.475,5.816,18.357,5.816
			c10.921,0,19.226-3.44,24.91-10.324l10.484,11.473c-9.395,9.722-21.629,14.584-36.708,14.584
			c-12.234,0-22.639-4.072-31.217-12.208c-8.577-8.136-12.862-19.065-12.862-32.776c0-13.708,4.368-24.606,13.106-32.693
			c8.738-8.083,19.037-12.125,30.893-12.125c11.853,0,21.93,3.581,30.238,10.734c8.299,7.156,12.449,17.018,12.449,29.576V210.398z
			 M1278.595,195.976h49.98c0-7.319-2.294-12.948-6.883-16.879c-4.589-3.932-10.241-5.899-16.96-5.899
			c-6.72,0-12.756,2.048-18.11,6.147C1281.271,183.44,1278.595,188.989,1278.595,195.976z"/>
	</g>
	<g>
		<polygon fill="#1A1A1A" points="192.298,0 149.426,42.875 0,192.298 42.875,235.174 192.293,85.755 341.717,235.174 
			384.596,192.298 		"/>
		<path fill="#0071BC" d="M330.122,246.771l-25.688-25.688l-89.339,89.338l8.37,8.371l-39.534,39.534l-28.462-28.462l39.534-39.535
			l8.369,8.37l89.336-89.342l-25.687-25.684l-89.338,89.336l8.371,8.371l-39.535,39.536l-28.464-28.464l39.534-39.534l8.369,8.369
			l89.338-89.338l-25.686-25.688l-89.339,89.337l8.368,8.369L109.105,283.5l-28.462-28.461l39.534-39.538l8.373,8.372l89.333-89.338
			l-25.687-25.69l-89.336,89.341l8.37,8.368l-48.478,48.472l5.778,5.796l-0.003,0.003l1.818,1.817l1.346,1.35l0.002-0.002
			l35.401,35.401l2.008,2.012l0.003-0.003l34.517,34.517l2.891,2.901l0.006-0.005l32.915,32.915l0.003-0.003l4.492,4.505
			l48.487-48.489l8.368,8.369L330.122,246.771z M180.021,137.758l8.948-8.953l8.952,8.953l-8.951,8.95L180.021,137.758z
			 M217.429,175.172l8.954-8.951l8.952,8.95l-8.952,8.954L217.429,175.172z M254.844,212.58l8.948-8.947l8.956,8.947l-8.956,8.957
			L254.844,212.58z M292.254,249.995l8.952-8.949l8.951,8.949l-8.951,8.956L292.254,249.995z"/>
	</g>
</g>
</svg>
