<?xml version="1.0" encoding="utf-8"?>
<!-- Generator: Adobe Illustrator 16.0.0, SVG Export Plug-In . SVG Version: 6.00 Build 0)  -->
<!DOCTYPE svg PUBLIC "-//W3C//DTD SVG 1.1//EN" "http://www.w3.org/Graphics/SVG/1.1/DTD/svg11.dtd">
<svg version="1.1" id="Layer_1" xmlns="http://www.w3.org/2000/svg" xmlns:xlink="http://www.w3.org/1999/xlink" x="0px" y="0px"
	 width="384.596px" height="376.229px" viewBox="0 0 384.596 376.229" enable-background="new 0 0 384.596 376.229"
	 xml:space="preserve">
<g>
	<polygon fill="#1A1A1A" points="192.298,0 149.426,42.875 0,192.298 42.875,235.174 192.293,85.755 341.717,235.174 
		384.596,192.298 	"/>
	<path fill="#0071BC" d="M330.122,246.771l-25.688-25.688l-89.339,89.338l8.37,8.371l-39.534,39.534l-28.462-28.462l39.534-39.535
		l8.369,8.37l89.336-89.342l-25.687-25.684l-89.338,89.336l8.371,8.371l-39.535,39.536l-28.464-28.464l39.534-39.534l8.369,8.369
		l89.338-89.338l-25.686-25.688l-89.339,89.337l8.368,8.369L109.105,283.5l-28.462-28.461l39.534-39.538l8.373,8.372l89.333-89.338
		l-25.687-25.69l-89.336,89.341l8.37,8.368l-48.478,48.472l5.778,5.796l-0.003,0.003l1.818,1.817l1.346,1.35l0.002-0.002
		l35.401,35.401l2.008,2.012l0.003-0.003l34.517,34.517l2.891,2.901l0.006-0.005l32.915,32.915l0.003-0.003l4.492,4.505
		l48.487-48.489l8.368,8.369L330.122,246.771z M180.021,137.758l8.948-8.953l8.952,8.953l-8.951,8.95L180.021,137.758z
		 M217.429,175.172l8.954-8.951l8.952,8.95l-8.952,8.954L217.429,175.172z M254.844,212.58l8.948-8.947l8.956,8.947l-8.956,8.957
		L254.844,212.58z M292.254,249.995l8.952-8.949l8.951,8.949l-8.951,8.956L292.254,249.995z"/>
</g>
</svg>
