<?xml version="1.0" encoding="utf-8"?>
<!-- Generator: Adobe Illustrator 16.0.0, SVG Export Plug-In . SVG Version: 6.00 Build 0)  -->
<!DOCTYPE svg PUBLIC "-//W3C//DTD SVG 1.1//EN" "http://www.w3.org/Graphics/SVG/1.1/DTD/svg11.dtd">
<svg version="1.1" id="Layer_1" xmlns="http://www.w3.org/2000/svg" xmlns:xlink="http://www.w3.org/1999/xlink" x="0px" y="0px"
	 width="523.423px" height="509.336px" viewBox="0 0 523.423 509.336" enable-background="new 0 0 523.423 509.336"
	 xml:space="preserve">
<g>
	<polygon fill="#1A1A1A" points="523.423,264.941 307.821,49.354 307.825,49.35 258.489,0 0.001,258.5 49.341,307.842 
		258.481,98.693 474.077,314.279 	"/>
	<path fill="#0071BC" d="M311.97,447.338l14.529,14.527L451.55,336.805l-49.336-49.338L277.155,412.521l14.529,14.529
		l-41.283,41.283l-51.576-51.576l41.283-41.281l14.527,14.529L379.69,264.947l-49.338-49.34L205.292,340.658l14.527,14.529
		l-41.281,41.285l-51.576-51.578l41.281-41.285l14.533,14.533l125.047-125.059l-49.34-49.346L133.433,268.799l14.523,14.525
		l-61.555,61.553h0.004l-0.018,0.02l18.596,18.592l1.689,1.695l-0.002-0.002l70.174,70.172l1.693,1.693l-0.004-0.002l70.174,70.172
		l1.693,1.693v-0.004l0.426,0.43l20.289-20.289l-0.428-0.426L311.97,447.338z M236.497,194.787l20.287-20.289l20.287,20.283
		L256.78,215.08L236.497,194.787z M308.36,266.65l20.287-20.289l20.285,20.285l-20.289,20.297L308.36,266.65z M380.218,338.51
		l20.291-20.287l20.287,20.287l-20.291,20.295L380.218,338.51z"/>
</g>
</svg>
